<?xml version="1.0" encoding="utf-8"?>
<!-- Uploaded to: SVG Repo, www.svgrepo.com, Generator: SVG Repo Mixer Tools -->
<svg fill="#000000" width="800px" height="800px" viewBox="0 0 32 32" version="1.1" xmlns="http://www.w3.org/2000/svg">
<title>gnome</title>
<path d="M15.831 27.093h0.030c0.006-0 0.013-0 0.020-0 0.295 0 0.552 0.159 0.691 0.396l0.002 0.004c0.159 0.329 0.251 0.715 0.251 1.123s-0.093 0.794-0.258 1.139l0.007-0.016c-0.146 0.246-0.41 0.408-0.712 0.408s-0.566-0.162-0.71-0.404l-0.002-0.004c-0.16-0.328-0.254-0.714-0.254-1.122s0.094-0.794 0.26-1.138l-0.007 0.015c0.138-0.239 0.39-0.398 0.681-0.401h0zM23.813 26.32v4.586h2.76v-0.893h-1.759v-1.050h1.308v-0.8h-1.308v-0.95h1.701v-0.893zM18.709 26.32l-0.486 4.586h0.95l0.292-2.965 0.893 2.979h0.635l0.896-2.882 0.292 2.868h0.947l-0.487-4.586h-1.077l-0.891 2.862-0.884-2.862zM9.827 26.32v4.586h0.852v-2.755l1.997 2.755h0.632v-4.586h-0.852v2.758l-1.997-2.758h-0.632zM15.788 26.236c-0.007-0-0.016-0-0.025-0-0.547 0-1.037 0.244-1.366 0.63l-0.002 0.002c-0.335 0.439-0.537 0.995-0.537 1.598 0 0.053 0.002 0.106 0.005 0.159l-0-0.007c-0.003 0.045-0.004 0.099-0.004 0.152 0 0.602 0.202 1.157 0.541 1.6l-0.005-0.006c0.334 0.389 0.827 0.635 1.377 0.635 0.032 0 0.063-0.001 0.094-0.002l-0.004 0c0.027 0.001 0.059 0.002 0.091 0.002 0.55 0 1.042-0.245 1.374-0.632l0.002-0.002c0.333-0.436 0.533-0.989 0.533-1.589 0-0.055-0.002-0.109-0.005-0.163l0 0.007c0.003-0.047 0.005-0.103 0.005-0.158 0-0.601-0.201-1.154-0.539-1.598l0.005 0.006c-0.334-0.39-0.827-0.636-1.377-0.636-0.031 0-0.063 0.001-0.093 0.002l0.004-0zM7.587 26.236c-0.031-0.002-0.067-0.003-0.104-0.003-0.582 0-1.107 0.246-1.477 0.639l-0.001 0.001c-0.362 0.431-0.583 0.992-0.583 1.605 0 0.049 0.001 0.099 0.004 0.147l-0-0.007c-0.002 0.040-0.004 0.087-0.004 0.134 0 0.61 0.216 1.17 0.576 1.607l-0.003-0.004c0.359 0.395 0.874 0.642 1.447 0.642 0.032 0 0.063-0.001 0.094-0.002l-0.004 0c0.056 0.004 0.122 0.007 0.189 0.007 0.531 0 1.023-0.163 1.43-0.442l-0.009 0.006v-2.206h-1.56v0.792h0.805v0.794c-0.179 0.122-0.401 0.196-0.64 0.196-0.030 0-0.059-0.001-0.089-0.003l0.004 0c-0.014 0.001-0.031 0.001-0.048 0.001-0.338 0-0.639-0.154-0.838-0.397l-0.002-0.002c-0.198-0.282-0.316-0.632-0.316-1.009 0-0.040 0.001-0.079 0.004-0.118l-0 0.005c-0.002-0.034-0.004-0.073-0.004-0.113 0-0.381 0.123-0.734 0.331-1.021l-0.003 0.005c0.208-0.245 0.516-0.399 0.86-0.399 0.022 0 0.044 0.001 0.065 0.002l-0.003-0c0.377 0 0.729 0.105 1.030 0.286l-0.009-0.005 0.27-0.796c-0.193-0.106-0.416-0.194-0.652-0.252l-0.019-0.004c-0.221-0.056-0.474-0.087-0.735-0.087-0.002 0-0.004 0-0.006 0h0zM17.48 8.737c-3.649 0.031-8.293 1.882-9.102 5.503-0.897 4.021 3.699 9.597 8.494 9.597 2.75-0.21 4.985-2.187 5.582-4.788l0.008-0.042c0.389-2.058-4.576-1.232-4.399 0.13 0.214 1.632-1.197 2.437-2.579 1.383-4.399-3.349 7.285-5.020 6.514-9.596-0.25-1.483-2.179-2.209-4.517-2.189zM7.936 6.54c-0.228 0.001-0.438 0.078-0.606 0.207l0.002-0.002c-1.72 1.187 0.577 4.061 1.59 3.614 0.885-0.39 0.321-3.774-0.987-3.819zM11.36 3.671c-0.169 0.008-0.328 0.047-0.472 0.112l0.008-0.003c-2.149 0.887-0.327 4.544 0.876 4.299 1.111-0.227 1.255-4.444-0.412-4.406zM15.99 1.834c-0.002 0-0.005-0-0.008-0-0.081 0-0.162 0.005-0.24 0.016l0.009-0.001c-2.674 0.346-1.731 4.995-0.307 5.081 1.378 0.085 2.884-5.087 0.546-5.096zM23.329 1.004c-4.749 0-5.64 6.766-2.968 6.766s7.718-6.766 2.968-6.766z"></path>
</svg>